<mxfile host="app.diagrams.net" agent="Mozilla/5.0 (Windows NT 10.0; Win64; x64) AppleWebKit/537.36 (KHTML, like Gecko) Chrome/136.0.0.0 Safari/537.36" version="27.0.3">
  <diagram name="第 1 页" id="-Th0c5VK0PgYgVABtMwX">
    <mxGraphModel dx="3143" dy="2436" grid="1" gridSize="10" guides="1" tooltips="1" connect="1" arrows="1" fold="1" page="1" pageScale="1" pageWidth="827" pageHeight="1169" math="0" shadow="0">
      <root>
        <mxCell id="0" />
        <mxCell id="1" parent="0" />
        <mxCell id="Kqkyi_JC7MfUf7znlrTd-4" style="rounded=0;orthogonalLoop=1;jettySize=auto;html=1;exitX=1;exitY=0.5;exitDx=0;exitDy=0;entryX=0;entryY=0.5;entryDx=0;entryDy=0;endArrow=none;startFill=0;" edge="1" parent="1" source="Kqkyi_JC7MfUf7znlrTd-1" target="Kqkyi_JC7MfUf7znlrTd-3">
          <mxGeometry relative="1" as="geometry" />
        </mxCell>
        <mxCell id="Kqkyi_JC7MfUf7znlrTd-5" value="1" style="edgeLabel;html=1;align=center;verticalAlign=middle;resizable=0;points=[];fontSize=24;" vertex="1" connectable="0" parent="Kqkyi_JC7MfUf7znlrTd-4">
          <mxGeometry x="-0.04" y="2" relative="1" as="geometry">
            <mxPoint as="offset" />
          </mxGeometry>
        </mxCell>
        <mxCell id="Kqkyi_JC7MfUf7znlrTd-48" style="rounded=0;orthogonalLoop=1;jettySize=auto;html=1;exitX=0;exitY=0.5;exitDx=0;exitDy=0;entryX=1;entryY=0.5;entryDx=0;entryDy=0;endArrow=none;startFill=0;" edge="1" parent="1" source="Kqkyi_JC7MfUf7znlrTd-1" target="Kqkyi_JC7MfUf7znlrTd-42">
          <mxGeometry relative="1" as="geometry" />
        </mxCell>
        <mxCell id="Kqkyi_JC7MfUf7znlrTd-54" value="1" style="edgeLabel;html=1;align=center;verticalAlign=middle;resizable=0;points=[];fontSize=25;" vertex="1" connectable="0" parent="Kqkyi_JC7MfUf7znlrTd-48">
          <mxGeometry x="0.2" y="-1" relative="1" as="geometry">
            <mxPoint as="offset" />
          </mxGeometry>
        </mxCell>
        <mxCell id="Kqkyi_JC7MfUf7znlrTd-65" style="rounded=0;orthogonalLoop=1;jettySize=auto;html=1;exitX=0.5;exitY=0;exitDx=0;exitDy=0;entryX=1;entryY=0.5;entryDx=0;entryDy=0;endArrow=none;startFill=0;" edge="1" parent="1" source="Kqkyi_JC7MfUf7znlrTd-1" target="Kqkyi_JC7MfUf7znlrTd-56">
          <mxGeometry relative="1" as="geometry" />
        </mxCell>
        <mxCell id="Kqkyi_JC7MfUf7znlrTd-66" style="rounded=0;orthogonalLoop=1;jettySize=auto;html=1;exitX=0.5;exitY=0;exitDx=0;exitDy=0;entryX=1;entryY=0.5;entryDx=0;entryDy=0;endArrow=none;startFill=0;" edge="1" parent="1" source="Kqkyi_JC7MfUf7znlrTd-1" target="Kqkyi_JC7MfUf7znlrTd-57">
          <mxGeometry relative="1" as="geometry" />
        </mxCell>
        <mxCell id="Kqkyi_JC7MfUf7znlrTd-67" style="rounded=0;orthogonalLoop=1;jettySize=auto;html=1;exitX=0.75;exitY=0;exitDx=0;exitDy=0;entryX=0;entryY=0.5;entryDx=0;entryDy=0;endArrow=none;startFill=0;" edge="1" parent="1" source="Kqkyi_JC7MfUf7znlrTd-1" target="Kqkyi_JC7MfUf7znlrTd-64">
          <mxGeometry relative="1" as="geometry" />
        </mxCell>
        <mxCell id="Kqkyi_JC7MfUf7znlrTd-68" style="rounded=0;orthogonalLoop=1;jettySize=auto;html=1;exitX=0.75;exitY=0;exitDx=0;exitDy=0;entryX=0;entryY=0.5;entryDx=0;entryDy=0;endArrow=none;startFill=0;" edge="1" parent="1" source="Kqkyi_JC7MfUf7znlrTd-1" target="Kqkyi_JC7MfUf7znlrTd-63">
          <mxGeometry relative="1" as="geometry" />
        </mxCell>
        <mxCell id="Kqkyi_JC7MfUf7znlrTd-69" style="rounded=0;orthogonalLoop=1;jettySize=auto;html=1;exitX=0.75;exitY=0;exitDx=0;exitDy=0;entryX=0;entryY=0.5;entryDx=0;entryDy=0;endArrow=none;startFill=0;" edge="1" parent="1" source="Kqkyi_JC7MfUf7znlrTd-1" target="Kqkyi_JC7MfUf7znlrTd-62">
          <mxGeometry relative="1" as="geometry" />
        </mxCell>
        <mxCell id="Kqkyi_JC7MfUf7znlrTd-70" style="rounded=0;orthogonalLoop=1;jettySize=auto;html=1;exitX=0.75;exitY=0;exitDx=0;exitDy=0;entryX=0;entryY=0.5;entryDx=0;entryDy=0;endArrow=none;startFill=0;" edge="1" parent="1" source="Kqkyi_JC7MfUf7znlrTd-1" target="Kqkyi_JC7MfUf7znlrTd-60">
          <mxGeometry relative="1" as="geometry" />
        </mxCell>
        <mxCell id="Kqkyi_JC7MfUf7znlrTd-71" style="rounded=0;orthogonalLoop=1;jettySize=auto;html=1;exitX=0.75;exitY=0;exitDx=0;exitDy=0;entryX=0.5;entryY=1;entryDx=0;entryDy=0;endArrow=none;startFill=0;" edge="1" parent="1" source="Kqkyi_JC7MfUf7znlrTd-1" target="Kqkyi_JC7MfUf7znlrTd-61">
          <mxGeometry relative="1" as="geometry" />
        </mxCell>
        <mxCell id="Kqkyi_JC7MfUf7znlrTd-72" style="rounded=0;orthogonalLoop=1;jettySize=auto;html=1;exitX=0.75;exitY=0;exitDx=0;exitDy=0;entryX=1;entryY=1;entryDx=0;entryDy=0;endArrow=none;startFill=0;" edge="1" parent="1" source="Kqkyi_JC7MfUf7znlrTd-1" target="Kqkyi_JC7MfUf7znlrTd-58">
          <mxGeometry relative="1" as="geometry" />
        </mxCell>
        <mxCell id="Kqkyi_JC7MfUf7znlrTd-76" style="rounded=0;orthogonalLoop=1;jettySize=auto;html=1;exitX=0.5;exitY=1;exitDx=0;exitDy=0;entryX=0.5;entryY=0;entryDx=0;entryDy=0;endArrow=none;startFill=0;" edge="1" parent="1" source="Kqkyi_JC7MfUf7znlrTd-1" target="Kqkyi_JC7MfUf7znlrTd-75">
          <mxGeometry relative="1" as="geometry" />
        </mxCell>
        <mxCell id="Kqkyi_JC7MfUf7znlrTd-95" value="1" style="edgeLabel;html=1;align=center;verticalAlign=middle;resizable=0;points=[];fontSize=25;" vertex="1" connectable="0" parent="Kqkyi_JC7MfUf7znlrTd-76">
          <mxGeometry x="-0.11" y="1" relative="1" as="geometry">
            <mxPoint as="offset" />
          </mxGeometry>
        </mxCell>
        <mxCell id="Kqkyi_JC7MfUf7znlrTd-141" style="rounded=0;orthogonalLoop=1;jettySize=auto;html=1;exitX=0.5;exitY=0;exitDx=0;exitDy=0;entryX=0.5;entryY=1;entryDx=0;entryDy=0;endArrow=none;startFill=0;" edge="1" parent="1" source="Kqkyi_JC7MfUf7znlrTd-1" target="Kqkyi_JC7MfUf7znlrTd-59">
          <mxGeometry relative="1" as="geometry" />
        </mxCell>
        <mxCell id="Kqkyi_JC7MfUf7znlrTd-143" style="rounded=0;orthogonalLoop=1;jettySize=auto;html=1;exitX=0;exitY=0;exitDx=0;exitDy=0;entryX=0.5;entryY=1;entryDx=0;entryDy=0;endArrow=none;startFill=0;" edge="1" parent="1" source="Kqkyi_JC7MfUf7znlrTd-1" target="Kqkyi_JC7MfUf7znlrTd-142">
          <mxGeometry relative="1" as="geometry" />
        </mxCell>
        <mxCell id="Kqkyi_JC7MfUf7znlrTd-144" value="1" style="edgeLabel;html=1;align=center;verticalAlign=middle;resizable=0;points=[];fontSize=25;" vertex="1" connectable="0" parent="Kqkyi_JC7MfUf7znlrTd-143">
          <mxGeometry x="0.0424" y="1" relative="1" as="geometry">
            <mxPoint as="offset" />
          </mxGeometry>
        </mxCell>
        <mxCell id="Kqkyi_JC7MfUf7znlrTd-1" value="用户" style="rounded=0;whiteSpace=wrap;html=1;" vertex="1" parent="1">
          <mxGeometry x="270" y="270" width="70" height="60" as="geometry" />
        </mxCell>
        <mxCell id="Kqkyi_JC7MfUf7znlrTd-17" style="rounded=0;orthogonalLoop=1;jettySize=auto;html=1;exitX=0.5;exitY=1;exitDx=0;exitDy=0;entryX=0.5;entryY=0;entryDx=0;entryDy=0;endArrow=none;startFill=0;" edge="1" parent="1" source="Kqkyi_JC7MfUf7znlrTd-2" target="Kqkyi_JC7MfUf7znlrTd-15">
          <mxGeometry relative="1" as="geometry" />
        </mxCell>
        <mxCell id="Kqkyi_JC7MfUf7znlrTd-19" style="rounded=0;orthogonalLoop=1;jettySize=auto;html=1;exitX=1;exitY=1;exitDx=0;exitDy=0;entryX=0;entryY=0;entryDx=0;entryDy=0;endArrow=none;startFill=0;" edge="1" parent="1" source="Kqkyi_JC7MfUf7znlrTd-2" target="Kqkyi_JC7MfUf7znlrTd-9">
          <mxGeometry relative="1" as="geometry" />
        </mxCell>
        <mxCell id="Kqkyi_JC7MfUf7znlrTd-20" style="rounded=0;orthogonalLoop=1;jettySize=auto;html=1;exitX=1;exitY=0.75;exitDx=0;exitDy=0;entryX=0;entryY=0.5;entryDx=0;entryDy=0;endArrow=none;startFill=0;" edge="1" parent="1" source="Kqkyi_JC7MfUf7znlrTd-2" target="Kqkyi_JC7MfUf7znlrTd-13">
          <mxGeometry relative="1" as="geometry" />
        </mxCell>
        <mxCell id="Kqkyi_JC7MfUf7znlrTd-21" style="rounded=0;orthogonalLoop=1;jettySize=auto;html=1;exitX=1;exitY=0.5;exitDx=0;exitDy=0;entryX=0;entryY=0.5;entryDx=0;entryDy=0;endArrow=none;startFill=0;" edge="1" parent="1" source="Kqkyi_JC7MfUf7znlrTd-2" target="Kqkyi_JC7MfUf7znlrTd-8">
          <mxGeometry relative="1" as="geometry" />
        </mxCell>
        <mxCell id="Kqkyi_JC7MfUf7znlrTd-22" style="rounded=0;orthogonalLoop=1;jettySize=auto;html=1;exitX=1;exitY=0.25;exitDx=0;exitDy=0;entryX=0;entryY=0.5;entryDx=0;entryDy=0;endArrow=none;startFill=0;" edge="1" parent="1" source="Kqkyi_JC7MfUf7znlrTd-2" target="Kqkyi_JC7MfUf7znlrTd-10">
          <mxGeometry relative="1" as="geometry" />
        </mxCell>
        <mxCell id="Kqkyi_JC7MfUf7znlrTd-26" style="rounded=0;orthogonalLoop=1;jettySize=auto;html=1;exitX=0.5;exitY=0;exitDx=0;exitDy=0;entryX=0;entryY=1;entryDx=0;entryDy=0;endArrow=none;startFill=0;" edge="1" parent="1" source="Kqkyi_JC7MfUf7znlrTd-2" target="Kqkyi_JC7MfUf7znlrTd-16">
          <mxGeometry relative="1" as="geometry" />
        </mxCell>
        <mxCell id="Kqkyi_JC7MfUf7znlrTd-2" value="算法执行记录" style="rounded=0;whiteSpace=wrap;html=1;" vertex="1" parent="1">
          <mxGeometry x="600" y="285" width="70" height="60" as="geometry" />
        </mxCell>
        <mxCell id="Kqkyi_JC7MfUf7znlrTd-6" style="rounded=0;orthogonalLoop=1;jettySize=auto;html=1;exitX=1;exitY=0.5;exitDx=0;exitDy=0;entryX=0;entryY=0.5;entryDx=0;entryDy=0;endArrow=none;startFill=0;" edge="1" parent="1" source="Kqkyi_JC7MfUf7znlrTd-3" target="Kqkyi_JC7MfUf7znlrTd-2">
          <mxGeometry relative="1" as="geometry" />
        </mxCell>
        <mxCell id="Kqkyi_JC7MfUf7znlrTd-7" value="n" style="edgeLabel;html=1;align=center;verticalAlign=middle;resizable=0;points=[];fontSize=27;" vertex="1" connectable="0" parent="Kqkyi_JC7MfUf7znlrTd-6">
          <mxGeometry x="-0.16" y="-1" relative="1" as="geometry">
            <mxPoint as="offset" />
          </mxGeometry>
        </mxCell>
        <mxCell id="Kqkyi_JC7MfUf7znlrTd-3" value="创建" style="rhombus;whiteSpace=wrap;html=1;" vertex="1" parent="1">
          <mxGeometry x="470" y="270" width="70" height="60" as="geometry" />
        </mxCell>
        <mxCell id="Kqkyi_JC7MfUf7znlrTd-8" value="&lt;font style=&quot;font-size: 14px;&quot;&gt;算法类型&lt;/font&gt;&lt;div&gt;&lt;font style=&quot;font-size: 14px;&quot;&gt;编码&lt;/font&gt;&lt;/div&gt;" style="ellipse;whiteSpace=wrap;html=1;rotation=0;" vertex="1" parent="1">
          <mxGeometry x="730" y="290" width="80" height="50" as="geometry" />
        </mxCell>
        <mxCell id="Kqkyi_JC7MfUf7znlrTd-9" value="&lt;span style=&quot;font-size: 14px;&quot;&gt;执行时间&lt;/span&gt;" style="ellipse;whiteSpace=wrap;html=1;" vertex="1" parent="1">
          <mxGeometry x="690" y="390" width="70" height="40" as="geometry" />
        </mxCell>
        <mxCell id="Kqkyi_JC7MfUf7znlrTd-10" value="&lt;span style=&quot;font-size: 14px;&quot;&gt;输入参数&lt;/span&gt;" style="ellipse;whiteSpace=wrap;html=1;rotation=0;" vertex="1" parent="1">
          <mxGeometry x="725" y="240" width="70" height="40" as="geometry" />
        </mxCell>
        <mxCell id="Kqkyi_JC7MfUf7znlrTd-11" value="&lt;span style=&quot;font-size: 14px;&quot;&gt;输出参数&lt;/span&gt;" style="ellipse;whiteSpace=wrap;html=1;rotation=0;" vertex="1" parent="1">
          <mxGeometry x="720" y="185" width="70" height="50" as="geometry" />
        </mxCell>
        <mxCell id="Kqkyi_JC7MfUf7znlrTd-13" value="&lt;font style=&quot;font-size: 14px;&quot;&gt;操作用户&lt;/font&gt;&lt;div&gt;&lt;font style=&quot;font-size: 14px;&quot;&gt;编码&lt;/font&gt;&lt;/div&gt;" style="ellipse;whiteSpace=wrap;html=1;" vertex="1" parent="1">
          <mxGeometry x="730" y="340" width="70" height="50" as="geometry" />
        </mxCell>
        <mxCell id="Kqkyi_JC7MfUf7znlrTd-14" value="&lt;span style=&quot;font-size: 14px;&quot;&gt;执行状态&lt;/span&gt;" style="ellipse;whiteSpace=wrap;html=1;rotation=0;" vertex="1" parent="1">
          <mxGeometry x="655" y="430" width="70" height="40" as="geometry" />
        </mxCell>
        <mxCell id="Kqkyi_JC7MfUf7znlrTd-15" value="&lt;span style=&quot;font-size: 14px;&quot;&gt;错误信息&lt;/span&gt;" style="ellipse;whiteSpace=wrap;html=1;" vertex="1" parent="1">
          <mxGeometry x="590" y="430" width="60" height="40" as="geometry" />
        </mxCell>
        <mxCell id="Kqkyi_JC7MfUf7znlrTd-16" value="&lt;span style=&quot;font-size: 14px;&quot;&gt;创建时间&lt;/span&gt;" style="ellipse;whiteSpace=wrap;html=1;" vertex="1" parent="1">
          <mxGeometry x="700" y="140" width="60" height="40" as="geometry" />
        </mxCell>
        <mxCell id="Kqkyi_JC7MfUf7znlrTd-18" style="rounded=0;orthogonalLoop=1;jettySize=auto;html=1;exitX=0.75;exitY=1;exitDx=0;exitDy=0;entryX=0.329;entryY=0.155;entryDx=0;entryDy=0;entryPerimeter=0;endArrow=none;startFill=0;" edge="1" parent="1" source="Kqkyi_JC7MfUf7znlrTd-2" target="Kqkyi_JC7MfUf7znlrTd-14">
          <mxGeometry relative="1" as="geometry" />
        </mxCell>
        <mxCell id="Kqkyi_JC7MfUf7znlrTd-24" style="rounded=0;orthogonalLoop=1;jettySize=auto;html=1;exitX=0.75;exitY=0;exitDx=0;exitDy=0;entryX=0.04;entryY=0.644;entryDx=0;entryDy=0;entryPerimeter=0;endArrow=none;startFill=0;" edge="1" parent="1" source="Kqkyi_JC7MfUf7znlrTd-2" target="Kqkyi_JC7MfUf7znlrTd-11">
          <mxGeometry relative="1" as="geometry" />
        </mxCell>
        <mxCell id="Kqkyi_JC7MfUf7znlrTd-28" style="rounded=0;orthogonalLoop=1;jettySize=auto;html=1;exitX=0.5;exitY=1;exitDx=0;exitDy=0;entryX=0.5;entryY=0;entryDx=0;entryDy=0;endArrow=none;startFill=0;" edge="1" parent="1" source="Kqkyi_JC7MfUf7znlrTd-27" target="Kqkyi_JC7MfUf7znlrTd-2">
          <mxGeometry relative="1" as="geometry" />
        </mxCell>
        <mxCell id="Kqkyi_JC7MfUf7znlrTd-29" value="1" style="edgeLabel;html=1;align=center;verticalAlign=middle;resizable=0;points=[];fontSize=25;" vertex="1" connectable="0" parent="Kqkyi_JC7MfUf7znlrTd-28">
          <mxGeometry x="-0.16" y="-5" relative="1" as="geometry">
            <mxPoint as="offset" />
          </mxGeometry>
        </mxCell>
        <mxCell id="Kqkyi_JC7MfUf7znlrTd-27" value="包含" style="rhombus;whiteSpace=wrap;html=1;" vertex="1" parent="1">
          <mxGeometry x="590" y="170" width="70" height="60" as="geometry" />
        </mxCell>
        <mxCell id="Kqkyi_JC7MfUf7znlrTd-36" style="rounded=0;orthogonalLoop=1;jettySize=auto;html=1;exitX=0.5;exitY=0;exitDx=0;exitDy=0;entryX=0.5;entryY=1;entryDx=0;entryDy=0;endArrow=none;startFill=0;" edge="1" parent="1" source="Kqkyi_JC7MfUf7znlrTd-30" target="Kqkyi_JC7MfUf7znlrTd-33">
          <mxGeometry relative="1" as="geometry" />
        </mxCell>
        <mxCell id="Kqkyi_JC7MfUf7znlrTd-38" style="rounded=0;orthogonalLoop=1;jettySize=auto;html=1;exitX=1;exitY=0.25;exitDx=0;exitDy=0;entryX=0;entryY=1;entryDx=0;entryDy=0;endArrow=none;startFill=0;" edge="1" parent="1" source="Kqkyi_JC7MfUf7znlrTd-30" target="Kqkyi_JC7MfUf7znlrTd-32">
          <mxGeometry relative="1" as="geometry" />
        </mxCell>
        <mxCell id="Kqkyi_JC7MfUf7znlrTd-39" value="" style="rounded=0;orthogonalLoop=1;jettySize=auto;html=1;endArrow=none;startFill=0;" edge="1" parent="1" source="Kqkyi_JC7MfUf7znlrTd-30" target="Kqkyi_JC7MfUf7znlrTd-35">
          <mxGeometry relative="1" as="geometry" />
        </mxCell>
        <mxCell id="Kqkyi_JC7MfUf7znlrTd-40" style="rounded=0;orthogonalLoop=1;jettySize=auto;html=1;exitX=0.5;exitY=1;exitDx=0;exitDy=0;entryX=0.5;entryY=0;entryDx=0;entryDy=0;endArrow=none;startFill=0;" edge="1" parent="1" source="Kqkyi_JC7MfUf7znlrTd-30" target="Kqkyi_JC7MfUf7znlrTd-27">
          <mxGeometry relative="1" as="geometry" />
        </mxCell>
        <mxCell id="Kqkyi_JC7MfUf7znlrTd-41" value="n" style="edgeLabel;html=1;align=center;verticalAlign=middle;resizable=0;points=[];fontSize=25;" vertex="1" connectable="0" parent="Kqkyi_JC7MfUf7znlrTd-40">
          <mxGeometry x="0.04" y="-2" relative="1" as="geometry">
            <mxPoint as="offset" />
          </mxGeometry>
        </mxCell>
        <mxCell id="Kqkyi_JC7MfUf7znlrTd-30" value="算法类型" style="rounded=0;whiteSpace=wrap;html=1;" vertex="1" parent="1">
          <mxGeometry x="530" y="35" width="70" height="60" as="geometry" />
        </mxCell>
        <mxCell id="Kqkyi_JC7MfUf7znlrTd-31" value="&lt;span style=&quot;font-size: 14px;&quot;&gt;算法描述&lt;/span&gt;" style="ellipse;whiteSpace=wrap;html=1;" vertex="1" parent="1">
          <mxGeometry x="524" y="-55" width="60" height="40" as="geometry" />
        </mxCell>
        <mxCell id="Kqkyi_JC7MfUf7znlrTd-32" value="&lt;span style=&quot;font-size: 14px;&quot;&gt;算法名称&lt;/span&gt;" style="ellipse;whiteSpace=wrap;html=1;" vertex="1" parent="1">
          <mxGeometry x="610" y="-20" width="60" height="40" as="geometry" />
        </mxCell>
        <mxCell id="Kqkyi_JC7MfUf7znlrTd-33" value="&lt;span style=&quot;font-size: 14px;&quot;&gt;算法类别&lt;/span&gt;" style="ellipse;whiteSpace=wrap;html=1;" vertex="1" parent="1">
          <mxGeometry x="440" y="-60" width="60" height="40" as="geometry" />
        </mxCell>
        <mxCell id="Kqkyi_JC7MfUf7znlrTd-35" value="&lt;span style=&quot;font-size: 14px;&quot;&gt;创建时间&lt;/span&gt;" style="ellipse;whiteSpace=wrap;html=1;" vertex="1" parent="1">
          <mxGeometry x="680" y="25" width="60" height="40" as="geometry" />
        </mxCell>
        <mxCell id="Kqkyi_JC7MfUf7znlrTd-37" style="rounded=0;orthogonalLoop=1;jettySize=auto;html=1;exitX=0.5;exitY=0;exitDx=0;exitDy=0;entryX=0.287;entryY=1.065;entryDx=0;entryDy=0;entryPerimeter=0;endArrow=none;startFill=0;" edge="1" parent="1" source="Kqkyi_JC7MfUf7znlrTd-30" target="Kqkyi_JC7MfUf7znlrTd-31">
          <mxGeometry relative="1" as="geometry" />
        </mxCell>
        <mxCell id="Kqkyi_JC7MfUf7znlrTd-49" style="rounded=0;orthogonalLoop=1;jettySize=auto;html=1;exitX=0;exitY=0.5;exitDx=0;exitDy=0;entryX=1;entryY=0.5;entryDx=0;entryDy=0;endArrow=none;startFill=0;" edge="1" parent="1" source="Kqkyi_JC7MfUf7znlrTd-42" target="Kqkyi_JC7MfUf7znlrTd-43">
          <mxGeometry relative="1" as="geometry" />
        </mxCell>
        <mxCell id="Kqkyi_JC7MfUf7znlrTd-55" value="n" style="edgeLabel;html=1;align=center;verticalAlign=middle;resizable=0;points=[];fontSize=25;" vertex="1" connectable="0" parent="Kqkyi_JC7MfUf7znlrTd-49">
          <mxGeometry x="0.12" y="-1" relative="1" as="geometry">
            <mxPoint as="offset" />
          </mxGeometry>
        </mxCell>
        <mxCell id="Kqkyi_JC7MfUf7znlrTd-42" value="运行" style="rhombus;whiteSpace=wrap;html=1;" vertex="1" parent="1">
          <mxGeometry x="105" y="270" width="70" height="60" as="geometry" />
        </mxCell>
        <mxCell id="Kqkyi_JC7MfUf7znlrTd-50" value="" style="rounded=0;orthogonalLoop=1;jettySize=auto;html=1;endArrow=none;startFill=0;" edge="1" parent="1" source="Kqkyi_JC7MfUf7znlrTd-43" target="Kqkyi_JC7MfUf7znlrTd-47">
          <mxGeometry relative="1" as="geometry" />
        </mxCell>
        <mxCell id="Kqkyi_JC7MfUf7znlrTd-51" style="rounded=0;orthogonalLoop=1;jettySize=auto;html=1;exitX=0;exitY=1;exitDx=0;exitDy=0;entryX=1;entryY=0;entryDx=0;entryDy=0;endArrow=none;startFill=0;" edge="1" parent="1" source="Kqkyi_JC7MfUf7znlrTd-43" target="Kqkyi_JC7MfUf7znlrTd-46">
          <mxGeometry relative="1" as="geometry" />
        </mxCell>
        <mxCell id="Kqkyi_JC7MfUf7znlrTd-52" value="" style="rounded=0;orthogonalLoop=1;jettySize=auto;html=1;endArrow=none;startFill=0;" edge="1" parent="1" source="Kqkyi_JC7MfUf7znlrTd-43" target="Kqkyi_JC7MfUf7znlrTd-45">
          <mxGeometry relative="1" as="geometry" />
        </mxCell>
        <mxCell id="Kqkyi_JC7MfUf7znlrTd-53" style="rounded=0;orthogonalLoop=1;jettySize=auto;html=1;exitX=0;exitY=0.5;exitDx=0;exitDy=0;entryX=1;entryY=0.5;entryDx=0;entryDy=0;endArrow=none;startFill=0;" edge="1" parent="1" source="Kqkyi_JC7MfUf7znlrTd-43" target="Kqkyi_JC7MfUf7znlrTd-44">
          <mxGeometry relative="1" as="geometry" />
        </mxCell>
        <mxCell id="Kqkyi_JC7MfUf7znlrTd-167" style="rounded=0;orthogonalLoop=1;jettySize=auto;html=1;exitX=0.5;exitY=0;exitDx=0;exitDy=0;entryX=1;entryY=0.5;entryDx=0;entryDy=0;endArrow=none;startFill=0;" edge="1" parent="1" source="Kqkyi_JC7MfUf7znlrTd-43" target="Kqkyi_JC7MfUf7znlrTd-163">
          <mxGeometry relative="1" as="geometry" />
        </mxCell>
        <mxCell id="Kqkyi_JC7MfUf7znlrTd-168" value="1" style="edgeLabel;html=1;align=center;verticalAlign=middle;resizable=0;points=[];fontSize=25;" vertex="1" connectable="0" parent="Kqkyi_JC7MfUf7znlrTd-167">
          <mxGeometry x="0.0772" y="-4" relative="1" as="geometry">
            <mxPoint as="offset" />
          </mxGeometry>
        </mxCell>
        <mxCell id="Kqkyi_JC7MfUf7znlrTd-43" value="算法" style="rounded=0;whiteSpace=wrap;html=1;" vertex="1" parent="1">
          <mxGeometry x="-90" y="270" width="70" height="60" as="geometry" />
        </mxCell>
        <mxCell id="Kqkyi_JC7MfUf7znlrTd-44" value="&lt;span style=&quot;font-size: 14px;&quot;&gt;算法类型编码&lt;/span&gt;" style="ellipse;whiteSpace=wrap;html=1;" vertex="1" parent="1">
          <mxGeometry x="-280" y="295" width="70" height="50" as="geometry" />
        </mxCell>
        <mxCell id="Kqkyi_JC7MfUf7znlrTd-45" value="&lt;span style=&quot;font-size: 14px;&quot;&gt;算法输入值&lt;/span&gt;" style="ellipse;whiteSpace=wrap;html=1;" vertex="1" parent="1">
          <mxGeometry x="-290" y="225" width="70" height="50" as="geometry" />
        </mxCell>
        <mxCell id="Kqkyi_JC7MfUf7znlrTd-46" value="&lt;span style=&quot;font-size: 14px;&quot;&gt;算法中间结果&lt;/span&gt;" style="ellipse;whiteSpace=wrap;html=1;" vertex="1" parent="1">
          <mxGeometry x="-280" y="360" width="70" height="50" as="geometry" />
        </mxCell>
        <mxCell id="Kqkyi_JC7MfUf7znlrTd-47" value="&lt;span style=&quot;font-size: 14px;&quot;&gt;算法输出值&lt;/span&gt;" style="ellipse;whiteSpace=wrap;html=1;" vertex="1" parent="1">
          <mxGeometry x="-240" y="420" width="70" height="50" as="geometry" />
        </mxCell>
        <mxCell id="Kqkyi_JC7MfUf7znlrTd-56" value="&lt;span style=&quot;font-size: 14px;&quot;&gt;用户&lt;/span&gt;&lt;div&gt;&lt;span style=&quot;font-size: 14px;&quot;&gt;编号&lt;/span&gt;&lt;span style=&quot;color: rgba(0, 0, 0, 0); font-family: monospace; font-size: 0px; text-align: start; text-wrap-mode: nowrap;&quot;&gt;%3CmxGraphModel%3E%3Croot%3E%3CmxCell%20id%3D%220%22%2F%3E%3CmxCell%20id%3D%221%22%20parent%3D%220%22%2F%3E%3CmxCell%20id%3D%222%22%20value%3D%22%26lt%3Bspan%20style%3D%26quot%3Bfont-size%3A%2014px%3B%26quot%3B%26gt%3B%E7%AE%97%E6%B3%95%E8%BE%93%E5%85%A5%E5%80%BC%26lt%3B%2Fspan%26gt%3B%22%20style%3D%22ellipse%3BwhiteSpace%3Dwrap%3Bhtml%3D1%3B%22%20vertex%3D%221%22%20parent%3D%221%22%3E%3CmxGeometry%20x%3D%2240%22%20y%3D%22220%22%20width%3D%2270%22%20height%3D%2250%22%20as%3D%22geometry%22%2F%3E%3C%2FmxCell%3E%3C%2Froot%3E%3C%2FmxGraphModel%3E&lt;/span&gt;&lt;/div&gt;" style="ellipse;whiteSpace=wrap;html=1;" vertex="1" parent="1">
          <mxGeometry x="240" y="175" width="60" height="40" as="geometry" />
        </mxCell>
        <mxCell id="Kqkyi_JC7MfUf7znlrTd-57" value="&lt;span style=&quot;font-size: 14px;&quot;&gt;用户名&lt;/span&gt;" style="ellipse;whiteSpace=wrap;html=1;" vertex="1" parent="1">
          <mxGeometry x="300" y="115" width="50" height="40" as="geometry" />
        </mxCell>
        <mxCell id="Kqkyi_JC7MfUf7znlrTd-58" value="&lt;span style=&quot;font-size: 14px;&quot;&gt;密码&lt;/span&gt;" style="ellipse;whiteSpace=wrap;html=1;" vertex="1" parent="1">
          <mxGeometry x="384" y="125" width="60" height="30" as="geometry" />
        </mxCell>
        <mxCell id="Kqkyi_JC7MfUf7znlrTd-59" value="&lt;span style=&quot;font-size: 14px;&quot;&gt;邮箱&lt;/span&gt;" style="ellipse;whiteSpace=wrap;html=1;" vertex="1" parent="1">
          <mxGeometry x="344" y="80" width="60" height="30" as="geometry" />
        </mxCell>
        <mxCell id="Kqkyi_JC7MfUf7znlrTd-60" value="&lt;span style=&quot;font-size: 14px;&quot;&gt;头像&lt;/span&gt;" style="ellipse;whiteSpace=wrap;html=1;" vertex="1" parent="1">
          <mxGeometry x="490" y="140" width="60" height="30" as="geometry" />
        </mxCell>
        <mxCell id="Kqkyi_JC7MfUf7znlrTd-61" value="&lt;span style=&quot;font-size: 14px;&quot;&gt;手机号&lt;/span&gt;" style="ellipse;whiteSpace=wrap;html=1;" vertex="1" parent="1">
          <mxGeometry x="460" y="100" width="60" height="30" as="geometry" />
        </mxCell>
        <mxCell id="Kqkyi_JC7MfUf7znlrTd-62" value="&lt;span style=&quot;font-size: 14px;&quot;&gt;身份证号&lt;/span&gt;" style="ellipse;whiteSpace=wrap;html=1;" vertex="1" parent="1">
          <mxGeometry x="490" y="175" width="60" height="30" as="geometry" />
        </mxCell>
        <mxCell id="Kqkyi_JC7MfUf7znlrTd-63" value="&lt;span style=&quot;font-size: 14px;&quot;&gt;创建时间&lt;/span&gt;" style="ellipse;whiteSpace=wrap;html=1;" vertex="1" parent="1">
          <mxGeometry x="500" y="210" width="60" height="30" as="geometry" />
        </mxCell>
        <mxCell id="Kqkyi_JC7MfUf7znlrTd-64" value="&lt;span style=&quot;font-size: 14px;&quot;&gt;更新时间&lt;/span&gt;" style="ellipse;whiteSpace=wrap;html=1;" vertex="1" parent="1">
          <mxGeometry x="510" y="240" width="60" height="30" as="geometry" />
        </mxCell>
        <mxCell id="Kqkyi_JC7MfUf7znlrTd-94" style="rounded=0;orthogonalLoop=1;jettySize=auto;html=1;exitX=0.5;exitY=1;exitDx=0;exitDy=0;entryX=0.5;entryY=0;entryDx=0;entryDy=0;endArrow=none;startFill=0;" edge="1" parent="1" source="Kqkyi_JC7MfUf7znlrTd-75" target="Kqkyi_JC7MfUf7znlrTd-77">
          <mxGeometry relative="1" as="geometry" />
        </mxCell>
        <mxCell id="Kqkyi_JC7MfUf7znlrTd-96" value="1" style="edgeLabel;html=1;align=center;verticalAlign=middle;resizable=0;points=[];fontSize=25;" vertex="1" connectable="0" parent="Kqkyi_JC7MfUf7znlrTd-94">
          <mxGeometry x="-0.31" y="-4" relative="1" as="geometry">
            <mxPoint as="offset" />
          </mxGeometry>
        </mxCell>
        <mxCell id="Kqkyi_JC7MfUf7znlrTd-75" value="属于" style="rhombus;whiteSpace=wrap;html=1;" vertex="1" parent="1">
          <mxGeometry x="360" y="370" width="70" height="60" as="geometry" />
        </mxCell>
        <mxCell id="Kqkyi_JC7MfUf7znlrTd-87" style="rounded=0;orthogonalLoop=1;jettySize=auto;html=1;exitX=1;exitY=0.25;exitDx=0;exitDy=0;entryX=0;entryY=0.5;entryDx=0;entryDy=0;endArrow=none;startFill=0;" edge="1" parent="1" source="Kqkyi_JC7MfUf7znlrTd-77" target="Kqkyi_JC7MfUf7znlrTd-85">
          <mxGeometry relative="1" as="geometry" />
        </mxCell>
        <mxCell id="Kqkyi_JC7MfUf7znlrTd-88" style="rounded=0;orthogonalLoop=1;jettySize=auto;html=1;exitX=1;exitY=0.5;exitDx=0;exitDy=0;entryX=0;entryY=0.5;entryDx=0;entryDy=0;endArrow=none;startFill=0;" edge="1" parent="1" source="Kqkyi_JC7MfUf7znlrTd-77" target="Kqkyi_JC7MfUf7znlrTd-82">
          <mxGeometry relative="1" as="geometry" />
        </mxCell>
        <mxCell id="Kqkyi_JC7MfUf7znlrTd-89" style="rounded=0;orthogonalLoop=1;jettySize=auto;html=1;exitX=1;exitY=1;exitDx=0;exitDy=0;entryX=0;entryY=0.5;entryDx=0;entryDy=0;endArrow=none;startFill=0;" edge="1" parent="1" source="Kqkyi_JC7MfUf7znlrTd-77" target="Kqkyi_JC7MfUf7znlrTd-84">
          <mxGeometry relative="1" as="geometry" />
        </mxCell>
        <mxCell id="Kqkyi_JC7MfUf7znlrTd-90" style="rounded=0;orthogonalLoop=1;jettySize=auto;html=1;exitX=0.75;exitY=1;exitDx=0;exitDy=0;entryX=0;entryY=0;entryDx=0;entryDy=0;endArrow=none;startFill=0;" edge="1" parent="1" source="Kqkyi_JC7MfUf7znlrTd-77" target="Kqkyi_JC7MfUf7znlrTd-80">
          <mxGeometry relative="1" as="geometry" />
        </mxCell>
        <mxCell id="Kqkyi_JC7MfUf7znlrTd-91" style="rounded=0;orthogonalLoop=1;jettySize=auto;html=1;exitX=0.5;exitY=1;exitDx=0;exitDy=0;entryX=0;entryY=0;entryDx=0;entryDy=0;endArrow=none;startFill=0;" edge="1" parent="1" source="Kqkyi_JC7MfUf7znlrTd-77" target="Kqkyi_JC7MfUf7znlrTd-79">
          <mxGeometry relative="1" as="geometry" />
        </mxCell>
        <mxCell id="Kqkyi_JC7MfUf7znlrTd-92" style="rounded=0;orthogonalLoop=1;jettySize=auto;html=1;exitX=0.25;exitY=1;exitDx=0;exitDy=0;entryX=0.5;entryY=0;entryDx=0;entryDy=0;endArrow=none;startFill=0;" edge="1" parent="1" source="Kqkyi_JC7MfUf7znlrTd-77" target="Kqkyi_JC7MfUf7znlrTd-78">
          <mxGeometry relative="1" as="geometry" />
        </mxCell>
        <mxCell id="Kqkyi_JC7MfUf7znlrTd-93" style="rounded=0;orthogonalLoop=1;jettySize=auto;html=1;exitX=0;exitY=1;exitDx=0;exitDy=0;entryX=0.5;entryY=0;entryDx=0;entryDy=0;endArrow=none;startFill=0;" edge="1" parent="1" source="Kqkyi_JC7MfUf7znlrTd-77" target="Kqkyi_JC7MfUf7znlrTd-81">
          <mxGeometry relative="1" as="geometry" />
        </mxCell>
        <mxCell id="Kqkyi_JC7MfUf7znlrTd-98" value="" style="edgeStyle=orthogonalEdgeStyle;rounded=0;orthogonalLoop=1;jettySize=auto;html=1;endArrow=none;startFill=0;" edge="1" parent="1" source="Kqkyi_JC7MfUf7znlrTd-77" target="Kqkyi_JC7MfUf7znlrTd-97">
          <mxGeometry relative="1" as="geometry" />
        </mxCell>
        <mxCell id="Kqkyi_JC7MfUf7znlrTd-104" value="1" style="edgeLabel;html=1;align=center;verticalAlign=middle;resizable=0;points=[];fontSize=25;" vertex="1" connectable="0" parent="Kqkyi_JC7MfUf7znlrTd-98">
          <mxGeometry x="-0.0133" y="-2" relative="1" as="geometry">
            <mxPoint as="offset" />
          </mxGeometry>
        </mxCell>
        <mxCell id="Kqkyi_JC7MfUf7znlrTd-77" value="角色" style="rounded=0;whiteSpace=wrap;html=1;" vertex="1" parent="1">
          <mxGeometry x="360" y="470" width="70" height="60" as="geometry" />
        </mxCell>
        <mxCell id="Kqkyi_JC7MfUf7znlrTd-78" value="&lt;span style=&quot;font-size: 14px;&quot;&gt;角色编号&lt;/span&gt;" style="ellipse;whiteSpace=wrap;html=1;" vertex="1" parent="1">
          <mxGeometry x="340" y="600" width="60" height="40" as="geometry" />
        </mxCell>
        <mxCell id="Kqkyi_JC7MfUf7znlrTd-79" value="&lt;span style=&quot;font-size: 14px;&quot;&gt;角色名称&lt;/span&gt;" style="ellipse;whiteSpace=wrap;html=1;" vertex="1" parent="1">
          <mxGeometry x="414" y="600" width="60" height="40" as="geometry" />
        </mxCell>
        <mxCell id="Kqkyi_JC7MfUf7znlrTd-80" value="&lt;span style=&quot;font-size: 14px;&quot;&gt;角色描述&lt;/span&gt;" style="ellipse;whiteSpace=wrap;html=1;" vertex="1" parent="1">
          <mxGeometry x="480" y="585" width="60" height="40" as="geometry" />
        </mxCell>
        <mxCell id="Kqkyi_JC7MfUf7znlrTd-81" value="&lt;span style=&quot;font-size: 14px;&quot;&gt;创建时间&lt;/span&gt;" style="ellipse;whiteSpace=wrap;html=1;" vertex="1" parent="1">
          <mxGeometry x="270" y="600" width="60" height="40" as="geometry" />
        </mxCell>
        <mxCell id="Kqkyi_JC7MfUf7znlrTd-82" value="&lt;span style=&quot;font-size: 14px;&quot;&gt;最后更新时间&lt;/span&gt;" style="ellipse;whiteSpace=wrap;html=1;" vertex="1" parent="1">
          <mxGeometry x="520" y="490" width="80" height="50" as="geometry" />
        </mxCell>
        <mxCell id="Kqkyi_JC7MfUf7znlrTd-83" value="&lt;span style=&quot;font-size: 14px;&quot;&gt;角色标签&lt;/span&gt;" style="ellipse;whiteSpace=wrap;html=1;" vertex="1" parent="1">
          <mxGeometry x="464" y="420" width="60" height="40" as="geometry" />
        </mxCell>
        <mxCell id="Kqkyi_JC7MfUf7znlrTd-84" value="&lt;span style=&quot;font-size: 14px;&quot;&gt;角色状态&lt;/span&gt;" style="ellipse;whiteSpace=wrap;html=1;" vertex="1" parent="1">
          <mxGeometry x="500" y="540" width="60" height="40" as="geometry" />
        </mxCell>
        <mxCell id="Kqkyi_JC7MfUf7znlrTd-85" value="&lt;span style=&quot;font-size: 14px;&quot;&gt;排序&lt;/span&gt;" style="ellipse;whiteSpace=wrap;html=1;" vertex="1" parent="1">
          <mxGeometry x="510" y="450" width="60" height="40" as="geometry" />
        </mxCell>
        <mxCell id="Kqkyi_JC7MfUf7znlrTd-86" style="rounded=0;orthogonalLoop=1;jettySize=auto;html=1;exitX=1;exitY=0;exitDx=0;exitDy=0;entryX=0.033;entryY=0.885;entryDx=0;entryDy=0;entryPerimeter=0;endArrow=none;startFill=0;" edge="1" parent="1" source="Kqkyi_JC7MfUf7znlrTd-77" target="Kqkyi_JC7MfUf7znlrTd-83">
          <mxGeometry relative="1" as="geometry" />
        </mxCell>
        <mxCell id="Kqkyi_JC7MfUf7znlrTd-100" value="" style="rounded=0;orthogonalLoop=1;jettySize=auto;html=1;endArrow=none;startFill=0;" edge="1" parent="1" source="Kqkyi_JC7MfUf7znlrTd-97" target="Kqkyi_JC7MfUf7znlrTd-99">
          <mxGeometry relative="1" as="geometry" />
        </mxCell>
        <mxCell id="Kqkyi_JC7MfUf7znlrTd-105" value="n" style="edgeLabel;html=1;align=center;verticalAlign=middle;resizable=0;points=[];fontSize=25;" vertex="1" connectable="0" parent="Kqkyi_JC7MfUf7znlrTd-100">
          <mxGeometry x="0.1" relative="1" as="geometry">
            <mxPoint as="offset" />
          </mxGeometry>
        </mxCell>
        <mxCell id="Kqkyi_JC7MfUf7znlrTd-97" value="包含" style="rhombus;whiteSpace=wrap;html=1;rounded=0;" vertex="1" parent="1">
          <mxGeometry x="120" y="460" width="80" height="80" as="geometry" />
        </mxCell>
        <mxCell id="Kqkyi_JC7MfUf7znlrTd-102" value="" style="rounded=0;orthogonalLoop=1;jettySize=auto;html=1;endArrow=none;startFill=0;" edge="1" parent="1" source="Kqkyi_JC7MfUf7znlrTd-99" target="Kqkyi_JC7MfUf7znlrTd-101">
          <mxGeometry relative="1" as="geometry" />
        </mxCell>
        <mxCell id="Kqkyi_JC7MfUf7znlrTd-103" value="1" style="edgeLabel;html=1;align=center;verticalAlign=middle;resizable=0;points=[];fontSize=25;" vertex="1" connectable="0" parent="Kqkyi_JC7MfUf7znlrTd-102">
          <mxGeometry x="-0.2057" y="-3" relative="1" as="geometry">
            <mxPoint as="offset" />
          </mxGeometry>
        </mxCell>
        <mxCell id="Kqkyi_JC7MfUf7znlrTd-99" value="权限" style="whiteSpace=wrap;html=1;rounded=0;" vertex="1" parent="1">
          <mxGeometry x="-30" y="490" width="65" height="60" as="geometry" />
        </mxCell>
        <mxCell id="Kqkyi_JC7MfUf7znlrTd-107" value="" style="rounded=0;orthogonalLoop=1;jettySize=auto;html=1;endArrow=none;startFill=0;" edge="1" parent="1" source="Kqkyi_JC7MfUf7znlrTd-101" target="Kqkyi_JC7MfUf7znlrTd-106">
          <mxGeometry relative="1" as="geometry" />
        </mxCell>
        <mxCell id="Kqkyi_JC7MfUf7znlrTd-108" value="1" style="edgeLabel;html=1;align=center;verticalAlign=middle;resizable=0;points=[];fontSize=25;" vertex="1" connectable="0" parent="Kqkyi_JC7MfUf7znlrTd-107">
          <mxGeometry x="-0.0797" y="-5" relative="1" as="geometry">
            <mxPoint as="offset" />
          </mxGeometry>
        </mxCell>
        <mxCell id="Kqkyi_JC7MfUf7znlrTd-101" value="对应" style="rhombus;whiteSpace=wrap;html=1;rounded=0;" vertex="1" parent="1">
          <mxGeometry x="45" y="600" width="80" height="80" as="geometry" />
        </mxCell>
        <mxCell id="Kqkyi_JC7MfUf7znlrTd-126" style="rounded=0;orthogonalLoop=1;jettySize=auto;html=1;exitX=1;exitY=0.5;exitDx=0;exitDy=0;entryX=0;entryY=0.5;entryDx=0;entryDy=0;endArrow=none;startFill=0;" edge="1" parent="1" source="Kqkyi_JC7MfUf7znlrTd-106" target="Kqkyi_JC7MfUf7znlrTd-118">
          <mxGeometry relative="1" as="geometry" />
        </mxCell>
        <mxCell id="Kqkyi_JC7MfUf7znlrTd-127" value="" style="rounded=0;orthogonalLoop=1;jettySize=auto;html=1;endArrow=none;startFill=0;" edge="1" parent="1" source="Kqkyi_JC7MfUf7znlrTd-106" target="Kqkyi_JC7MfUf7znlrTd-124">
          <mxGeometry relative="1" as="geometry" />
        </mxCell>
        <mxCell id="Kqkyi_JC7MfUf7znlrTd-128" value="" style="rounded=0;orthogonalLoop=1;jettySize=auto;html=1;endArrow=none;startFill=0;" edge="1" parent="1" source="Kqkyi_JC7MfUf7znlrTd-106" target="Kqkyi_JC7MfUf7znlrTd-125">
          <mxGeometry relative="1" as="geometry" />
        </mxCell>
        <mxCell id="Kqkyi_JC7MfUf7znlrTd-129" style="rounded=0;orthogonalLoop=1;jettySize=auto;html=1;exitX=1;exitY=0.5;exitDx=0;exitDy=0;entryX=0;entryY=0.5;entryDx=0;entryDy=0;endArrow=none;startFill=0;" edge="1" parent="1" source="Kqkyi_JC7MfUf7znlrTd-106" target="Kqkyi_JC7MfUf7znlrTd-117">
          <mxGeometry relative="1" as="geometry" />
        </mxCell>
        <mxCell id="Kqkyi_JC7MfUf7znlrTd-130" style="rounded=0;orthogonalLoop=1;jettySize=auto;html=1;exitX=1;exitY=0.5;exitDx=0;exitDy=0;entryX=0;entryY=0.5;entryDx=0;entryDy=0;endArrow=none;startFill=0;" edge="1" parent="1" source="Kqkyi_JC7MfUf7znlrTd-106" target="Kqkyi_JC7MfUf7znlrTd-116">
          <mxGeometry relative="1" as="geometry" />
        </mxCell>
        <mxCell id="Kqkyi_JC7MfUf7znlrTd-131" style="rounded=0;orthogonalLoop=1;jettySize=auto;html=1;exitX=1;exitY=1;exitDx=0;exitDy=0;entryX=0;entryY=0.5;entryDx=0;entryDy=0;endArrow=none;startFill=0;" edge="1" parent="1" source="Kqkyi_JC7MfUf7znlrTd-106" target="Kqkyi_JC7MfUf7znlrTd-122">
          <mxGeometry relative="1" as="geometry" />
        </mxCell>
        <mxCell id="Kqkyi_JC7MfUf7znlrTd-136" style="rounded=0;orthogonalLoop=1;jettySize=auto;html=1;exitX=0.5;exitY=1;exitDx=0;exitDy=0;entryX=0.5;entryY=0;entryDx=0;entryDy=0;endArrow=none;startFill=0;" edge="1" parent="1" source="Kqkyi_JC7MfUf7znlrTd-106" target="Kqkyi_JC7MfUf7znlrTd-121">
          <mxGeometry relative="1" as="geometry" />
        </mxCell>
        <mxCell id="Kqkyi_JC7MfUf7znlrTd-137" style="rounded=0;orthogonalLoop=1;jettySize=auto;html=1;exitX=0;exitY=1;exitDx=0;exitDy=0;entryX=1;entryY=0;entryDx=0;entryDy=0;endArrow=none;startFill=0;" edge="1" parent="1" source="Kqkyi_JC7MfUf7znlrTd-106" target="Kqkyi_JC7MfUf7znlrTd-119">
          <mxGeometry relative="1" as="geometry" />
        </mxCell>
        <mxCell id="Kqkyi_JC7MfUf7znlrTd-138" style="rounded=0;orthogonalLoop=1;jettySize=auto;html=1;exitX=0;exitY=0.25;exitDx=0;exitDy=0;entryX=1;entryY=0.5;entryDx=0;entryDy=0;endArrow=none;startFill=0;" edge="1" parent="1" source="Kqkyi_JC7MfUf7znlrTd-106" target="Kqkyi_JC7MfUf7znlrTd-123">
          <mxGeometry relative="1" as="geometry" />
        </mxCell>
        <mxCell id="Kqkyi_JC7MfUf7znlrTd-140" style="rounded=0;orthogonalLoop=1;jettySize=auto;html=1;exitX=0;exitY=0;exitDx=0;exitDy=0;entryX=1;entryY=1;entryDx=0;entryDy=0;endArrow=none;startFill=0;" edge="1" parent="1" source="Kqkyi_JC7MfUf7znlrTd-106" target="Kqkyi_JC7MfUf7znlrTd-115">
          <mxGeometry relative="1" as="geometry" />
        </mxCell>
        <mxCell id="Kqkyi_JC7MfUf7znlrTd-106" value="菜单" style="rounded=0;whiteSpace=wrap;html=1;" vertex="1" parent="1">
          <mxGeometry x="-100" y="700" width="60" height="60" as="geometry" />
        </mxCell>
        <mxCell id="Kqkyi_JC7MfUf7znlrTd-114" style="rounded=0;orthogonalLoop=1;jettySize=auto;html=1;exitX=1;exitY=0.5;exitDx=0;exitDy=0;entryX=0;entryY=0.75;entryDx=0;entryDy=0;endArrow=none;startFill=0;" edge="1" parent="1" source="Kqkyi_JC7MfUf7znlrTd-109" target="Kqkyi_JC7MfUf7znlrTd-99">
          <mxGeometry relative="1" as="geometry" />
        </mxCell>
        <mxCell id="Kqkyi_JC7MfUf7znlrTd-109" value="&lt;span style=&quot;font-size: 14px;&quot;&gt;角色编号&lt;/span&gt;" style="ellipse;whiteSpace=wrap;html=1;" vertex="1" parent="1">
          <mxGeometry x="-120" y="580" width="60" height="40" as="geometry" />
        </mxCell>
        <mxCell id="Kqkyi_JC7MfUf7znlrTd-110" value="&lt;span style=&quot;font-size: 14px;&quot;&gt;菜单编号&lt;/span&gt;" style="ellipse;whiteSpace=wrap;html=1;" vertex="1" parent="1">
          <mxGeometry x="-140" y="430" width="60" height="40" as="geometry" />
        </mxCell>
        <mxCell id="Kqkyi_JC7MfUf7znlrTd-113" style="rounded=0;orthogonalLoop=1;jettySize=auto;html=1;exitX=1;exitY=0.5;exitDx=0;exitDy=0;entryX=0;entryY=0.5;entryDx=0;entryDy=0;endArrow=none;startFill=0;" edge="1" parent="1" source="Kqkyi_JC7MfUf7znlrTd-111" target="Kqkyi_JC7MfUf7znlrTd-99">
          <mxGeometry relative="1" as="geometry" />
        </mxCell>
        <mxCell id="Kqkyi_JC7MfUf7znlrTd-111" value="&lt;span style=&quot;font-size: 14px;&quot;&gt;权限类型&lt;/span&gt;" style="ellipse;whiteSpace=wrap;html=1;" vertex="1" parent="1">
          <mxGeometry x="-150" y="500" width="60" height="40" as="geometry" />
        </mxCell>
        <mxCell id="Kqkyi_JC7MfUf7znlrTd-112" style="rounded=0;orthogonalLoop=1;jettySize=auto;html=1;exitX=1;exitY=0.5;exitDx=0;exitDy=0;entryX=0.391;entryY=-0.017;entryDx=0;entryDy=0;entryPerimeter=0;endArrow=none;startFill=0;" edge="1" parent="1" source="Kqkyi_JC7MfUf7znlrTd-110" target="Kqkyi_JC7MfUf7znlrTd-99">
          <mxGeometry relative="1" as="geometry" />
        </mxCell>
        <mxCell id="Kqkyi_JC7MfUf7znlrTd-115" value="&lt;span style=&quot;font-size: 14px;&quot;&gt;菜单编号&lt;/span&gt;" style="ellipse;whiteSpace=wrap;html=1;" vertex="1" parent="1">
          <mxGeometry x="-290" y="560" width="60" height="40" as="geometry" />
        </mxCell>
        <mxCell id="Kqkyi_JC7MfUf7znlrTd-116" value="&lt;span style=&quot;font-size: 14px;&quot;&gt;是否隐藏&lt;/span&gt;" style="ellipse;whiteSpace=wrap;html=1;" vertex="1" parent="1">
          <mxGeometry x="145" y="800" width="60" height="40" as="geometry" />
        </mxCell>
        <mxCell id="Kqkyi_JC7MfUf7znlrTd-117" value="&lt;span style=&quot;font-size: 14px;&quot;&gt;组件路径&lt;/span&gt;" style="ellipse;whiteSpace=wrap;html=1;" vertex="1" parent="1">
          <mxGeometry x="190" y="760" width="60" height="40" as="geometry" />
        </mxCell>
        <mxCell id="Kqkyi_JC7MfUf7znlrTd-118" value="&lt;span style=&quot;font-size: 14px;&quot;&gt;图标&lt;/span&gt;" style="ellipse;whiteSpace=wrap;html=1;" vertex="1" parent="1">
          <mxGeometry x="205" y="710" width="60" height="40" as="geometry" />
        </mxCell>
        <mxCell id="Kqkyi_JC7MfUf7znlrTd-119" value="&lt;span style=&quot;font-size: 14px;&quot;&gt;菜单标识&lt;/span&gt;" style="ellipse;whiteSpace=wrap;html=1;" vertex="1" parent="1">
          <mxGeometry x="-250" y="830" width="60" height="40" as="geometry" />
        </mxCell>
        <mxCell id="Kqkyi_JC7MfUf7znlrTd-120" value="&lt;span style=&quot;font-size: 14px;&quot;&gt;路由&lt;/span&gt;" style="ellipse;whiteSpace=wrap;html=1;" vertex="1" parent="1">
          <mxGeometry y="880" width="60" height="40" as="geometry" />
        </mxCell>
        <mxCell id="Kqkyi_JC7MfUf7znlrTd-121" value="&lt;span style=&quot;font-size: 14px;&quot;&gt;菜单类型&lt;/span&gt;" style="ellipse;whiteSpace=wrap;html=1;" vertex="1" parent="1">
          <mxGeometry x="-120" y="880" width="60" height="40" as="geometry" />
        </mxCell>
        <mxCell id="Kqkyi_JC7MfUf7znlrTd-122" value="&lt;span style=&quot;font-size: 14px;&quot;&gt;路由状态&lt;/span&gt;" style="ellipse;whiteSpace=wrap;html=1;" vertex="1" parent="1">
          <mxGeometry x="80" y="850" width="60" height="40" as="geometry" />
        </mxCell>
        <mxCell id="Kqkyi_JC7MfUf7znlrTd-123" value="&lt;span style=&quot;font-size: 14px;&quot;&gt;菜单名称&lt;/span&gt;" style="ellipse;whiteSpace=wrap;html=1;" vertex="1" parent="1">
          <mxGeometry x="-300" y="640" width="60" height="40" as="geometry" />
        </mxCell>
        <mxCell id="Kqkyi_JC7MfUf7znlrTd-124" value="&lt;span style=&quot;font-size: 14px;&quot;&gt;菜单编号&lt;/span&gt;" style="ellipse;whiteSpace=wrap;html=1;" vertex="1" parent="1">
          <mxGeometry x="-260" y="780" width="60" height="40" as="geometry" />
        </mxCell>
        <mxCell id="Kqkyi_JC7MfUf7znlrTd-125" value="&lt;span style=&quot;font-size: 14px;&quot;&gt;父路由编号&lt;/span&gt;" style="ellipse;whiteSpace=wrap;html=1;" vertex="1" parent="1">
          <mxGeometry x="-285" y="720" width="80" height="40" as="geometry" />
        </mxCell>
        <mxCell id="Kqkyi_JC7MfUf7znlrTd-132" style="rounded=0;orthogonalLoop=1;jettySize=auto;html=1;exitX=0.75;exitY=1;exitDx=0;exitDy=0;entryX=0.29;entryY=0.125;entryDx=0;entryDy=0;entryPerimeter=0;endArrow=none;startFill=0;" edge="1" parent="1" source="Kqkyi_JC7MfUf7znlrTd-106" target="Kqkyi_JC7MfUf7znlrTd-120">
          <mxGeometry relative="1" as="geometry" />
        </mxCell>
        <mxCell id="Kqkyi_JC7MfUf7znlrTd-142" value="管理" style="rhombus;whiteSpace=wrap;html=1;" vertex="1" parent="1">
          <mxGeometry x="145" y="150" width="70" height="60" as="geometry" />
        </mxCell>
        <mxCell id="Kqkyi_JC7MfUf7znlrTd-146" style="rounded=0;orthogonalLoop=1;jettySize=auto;html=1;exitX=0.5;exitY=1;exitDx=0;exitDy=0;entryX=0.5;entryY=0;entryDx=0;entryDy=0;endArrow=none;startFill=0;" edge="1" parent="1" source="Kqkyi_JC7MfUf7znlrTd-145" target="Kqkyi_JC7MfUf7znlrTd-142">
          <mxGeometry relative="1" as="geometry" />
        </mxCell>
        <mxCell id="Kqkyi_JC7MfUf7znlrTd-147" value="n" style="edgeLabel;html=1;align=center;verticalAlign=middle;resizable=0;points=[];fontSize=25;" vertex="1" connectable="0" parent="Kqkyi_JC7MfUf7znlrTd-146">
          <mxGeometry x="-0.08" y="-1" relative="1" as="geometry">
            <mxPoint as="offset" />
          </mxGeometry>
        </mxCell>
        <mxCell id="Kqkyi_JC7MfUf7znlrTd-156" style="rounded=0;orthogonalLoop=1;jettySize=auto;html=1;exitX=1;exitY=0.5;exitDx=0;exitDy=0;entryX=0;entryY=0.5;entryDx=0;entryDy=0;endArrow=none;startFill=0;" edge="1" parent="1" source="Kqkyi_JC7MfUf7znlrTd-145" target="Kqkyi_JC7MfUf7znlrTd-148">
          <mxGeometry relative="1" as="geometry" />
        </mxCell>
        <mxCell id="Kqkyi_JC7MfUf7znlrTd-157" style="rounded=0;orthogonalLoop=1;jettySize=auto;html=1;exitX=1;exitY=0;exitDx=0;exitDy=0;entryX=0;entryY=1;entryDx=0;entryDy=0;endArrow=none;startFill=0;" edge="1" parent="1" source="Kqkyi_JC7MfUf7znlrTd-145" target="Kqkyi_JC7MfUf7znlrTd-150">
          <mxGeometry relative="1" as="geometry" />
        </mxCell>
        <mxCell id="Kqkyi_JC7MfUf7znlrTd-158" value="" style="rounded=0;orthogonalLoop=1;jettySize=auto;html=1;endArrow=none;startFill=0;" edge="1" parent="1" source="Kqkyi_JC7MfUf7znlrTd-145" target="Kqkyi_JC7MfUf7znlrTd-151">
          <mxGeometry relative="1" as="geometry" />
        </mxCell>
        <mxCell id="Kqkyi_JC7MfUf7znlrTd-159" value="" style="rounded=0;orthogonalLoop=1;jettySize=auto;html=1;endArrow=none;startFill=0;" edge="1" parent="1" source="Kqkyi_JC7MfUf7znlrTd-145" target="Kqkyi_JC7MfUf7znlrTd-154">
          <mxGeometry relative="1" as="geometry" />
        </mxCell>
        <mxCell id="Kqkyi_JC7MfUf7znlrTd-160" style="rounded=0;orthogonalLoop=1;jettySize=auto;html=1;exitX=0.75;exitY=0;exitDx=0;exitDy=0;entryX=0.5;entryY=1;entryDx=0;entryDy=0;endArrow=none;startFill=0;" edge="1" parent="1" source="Kqkyi_JC7MfUf7znlrTd-145" target="Kqkyi_JC7MfUf7znlrTd-149">
          <mxGeometry relative="1" as="geometry" />
        </mxCell>
        <mxCell id="Kqkyi_JC7MfUf7znlrTd-161" style="rounded=0;orthogonalLoop=1;jettySize=auto;html=1;exitX=0;exitY=0;exitDx=0;exitDy=0;entryX=1;entryY=1;entryDx=0;entryDy=0;endArrow=none;startFill=0;" edge="1" parent="1" source="Kqkyi_JC7MfUf7znlrTd-145" target="Kqkyi_JC7MfUf7znlrTd-152">
          <mxGeometry relative="1" as="geometry" />
        </mxCell>
        <mxCell id="Kqkyi_JC7MfUf7znlrTd-162" style="rounded=0;orthogonalLoop=1;jettySize=auto;html=1;exitX=0;exitY=1;exitDx=0;exitDy=0;entryX=1;entryY=0.5;entryDx=0;entryDy=0;endArrow=none;startFill=0;" edge="1" parent="1" source="Kqkyi_JC7MfUf7znlrTd-145" target="Kqkyi_JC7MfUf7znlrTd-153">
          <mxGeometry relative="1" as="geometry" />
        </mxCell>
        <mxCell id="Kqkyi_JC7MfUf7znlrTd-145" value="算法进度" style="rounded=0;whiteSpace=wrap;html=1;" vertex="1" parent="1">
          <mxGeometry x="150" y="30" width="70" height="60" as="geometry" />
        </mxCell>
        <mxCell id="Kqkyi_JC7MfUf7znlrTd-148" value="&lt;span style=&quot;font-size: 14px;&quot;&gt;类别&lt;/span&gt;" style="ellipse;whiteSpace=wrap;html=1;" vertex="1" parent="1">
          <mxGeometry x="320" y="5" width="60" height="30" as="geometry" />
        </mxCell>
        <mxCell id="Kqkyi_JC7MfUf7znlrTd-149" value="&lt;span style=&quot;font-size: 14px;&quot;&gt;是否可见&lt;/span&gt;" style="ellipse;whiteSpace=wrap;html=1;" vertex="1" parent="1">
          <mxGeometry x="190" y="-70" width="60" height="30" as="geometry" />
        </mxCell>
        <mxCell id="Kqkyi_JC7MfUf7znlrTd-150" value="&lt;span style=&quot;font-size: 14px;&quot;&gt;名称&lt;/span&gt;" style="ellipse;whiteSpace=wrap;html=1;" vertex="1" parent="1">
          <mxGeometry x="280" y="-40" width="60" height="30" as="geometry" />
        </mxCell>
        <mxCell id="Kqkyi_JC7MfUf7znlrTd-151" value="&lt;span style=&quot;font-size: 14px;&quot;&gt;显示顺序&lt;/span&gt;" style="ellipse;whiteSpace=wrap;html=1;" vertex="1" parent="1">
          <mxGeometry x="110" y="-70" width="60" height="30" as="geometry" />
        </mxCell>
        <mxCell id="Kqkyi_JC7MfUf7znlrTd-152" value="&lt;span style=&quot;font-size: 14px;&quot;&gt;开发进度&lt;/span&gt;" style="ellipse;whiteSpace=wrap;html=1;" vertex="1" parent="1">
          <mxGeometry x="65" y="-40" width="60" height="30" as="geometry" />
        </mxCell>
        <mxCell id="Kqkyi_JC7MfUf7znlrTd-153" value="&lt;span style=&quot;font-size: 14px;&quot;&gt;更新时间&lt;/span&gt;" style="ellipse;whiteSpace=wrap;html=1;" vertex="1" parent="1">
          <mxGeometry x="30" y="65" width="60" height="30" as="geometry" />
        </mxCell>
        <mxCell id="Kqkyi_JC7MfUf7znlrTd-154" value="&lt;span style=&quot;font-size: 14px;&quot;&gt;创建时间&lt;/span&gt;" style="ellipse;whiteSpace=wrap;html=1;" vertex="1" parent="1">
          <mxGeometry x="35" y="10" width="60" height="30" as="geometry" />
        </mxCell>
        <mxCell id="Kqkyi_JC7MfUf7znlrTd-166" style="rounded=0;orthogonalLoop=1;jettySize=auto;html=1;exitX=0;exitY=0.5;exitDx=0;exitDy=0;entryX=1;entryY=0.5;entryDx=0;entryDy=0;endArrow=none;startFill=0;" edge="1" parent="1" source="Kqkyi_JC7MfUf7znlrTd-163" target="Kqkyi_JC7MfUf7znlrTd-165">
          <mxGeometry relative="1" as="geometry" />
        </mxCell>
        <mxCell id="Kqkyi_JC7MfUf7znlrTd-169" value="n" style="edgeLabel;html=1;align=center;verticalAlign=middle;resizable=0;points=[];fontSize=25;" vertex="1" connectable="0" parent="Kqkyi_JC7MfUf7znlrTd-166">
          <mxGeometry x="-0.1923" y="2" relative="1" as="geometry">
            <mxPoint as="offset" />
          </mxGeometry>
        </mxCell>
        <mxCell id="Kqkyi_JC7MfUf7znlrTd-163" value="包含" style="rhombus;whiteSpace=wrap;html=1;rounded=0;" vertex="1" parent="1">
          <mxGeometry x="-50" y="95" width="80" height="80" as="geometry" />
        </mxCell>
        <mxCell id="Kqkyi_JC7MfUf7znlrTd-176" value="" style="rounded=0;orthogonalLoop=1;jettySize=auto;html=1;endArrow=none;startFill=0;" edge="1" parent="1" source="Kqkyi_JC7MfUf7znlrTd-165" target="Kqkyi_JC7MfUf7znlrTd-170">
          <mxGeometry relative="1" as="geometry" />
        </mxCell>
        <mxCell id="Kqkyi_JC7MfUf7znlrTd-177" value="" style="rounded=0;orthogonalLoop=1;jettySize=auto;html=1;endArrow=none;startFill=0;" edge="1" parent="1" source="Kqkyi_JC7MfUf7znlrTd-165" target="Kqkyi_JC7MfUf7znlrTd-172">
          <mxGeometry relative="1" as="geometry" />
        </mxCell>
        <mxCell id="Kqkyi_JC7MfUf7znlrTd-178" value="" style="rounded=0;orthogonalLoop=1;jettySize=auto;html=1;endArrow=none;startFill=0;" edge="1" parent="1" source="Kqkyi_JC7MfUf7znlrTd-165" target="Kqkyi_JC7MfUf7znlrTd-174">
          <mxGeometry relative="1" as="geometry" />
        </mxCell>
        <mxCell id="Kqkyi_JC7MfUf7znlrTd-179" style="rounded=0;orthogonalLoop=1;jettySize=auto;html=1;exitX=0;exitY=0;exitDx=0;exitDy=0;entryX=1;entryY=1;entryDx=0;entryDy=0;endArrow=none;startFill=0;" edge="1" parent="1" source="Kqkyi_JC7MfUf7znlrTd-165" target="Kqkyi_JC7MfUf7znlrTd-171">
          <mxGeometry relative="1" as="geometry" />
        </mxCell>
        <mxCell id="Kqkyi_JC7MfUf7znlrTd-180" style="rounded=0;orthogonalLoop=1;jettySize=auto;html=1;exitX=0.75;exitY=1;exitDx=0;exitDy=0;entryX=0.5;entryY=0;entryDx=0;entryDy=0;endArrow=none;startFill=0;" edge="1" parent="1" source="Kqkyi_JC7MfUf7znlrTd-165" target="Kqkyi_JC7MfUf7znlrTd-173">
          <mxGeometry relative="1" as="geometry" />
        </mxCell>
        <mxCell id="Kqkyi_JC7MfUf7znlrTd-181" style="rounded=0;orthogonalLoop=1;jettySize=auto;html=1;exitX=1;exitY=0;exitDx=0;exitDy=0;entryX=0.5;entryY=1;entryDx=0;entryDy=0;endArrow=none;startFill=0;" edge="1" parent="1" source="Kqkyi_JC7MfUf7znlrTd-165" target="Kqkyi_JC7MfUf7znlrTd-175">
          <mxGeometry relative="1" as="geometry" />
        </mxCell>
        <mxCell id="Kqkyi_JC7MfUf7znlrTd-165" value="统计数据" style="rounded=0;whiteSpace=wrap;html=1;" vertex="1" parent="1">
          <mxGeometry x="-200" y="80" width="70" height="60" as="geometry" />
        </mxCell>
        <mxCell id="Kqkyi_JC7MfUf7znlrTd-170" value="&lt;span style=&quot;font-size: 14px;&quot;&gt;创建时间&lt;/span&gt;" style="ellipse;whiteSpace=wrap;html=1;" vertex="1" parent="1">
          <mxGeometry x="-210" y="-60" width="70" height="50" as="geometry" />
        </mxCell>
        <mxCell id="Kqkyi_JC7MfUf7znlrTd-171" value="&lt;span style=&quot;font-size: 14px;&quot;&gt;显示顺序&lt;/span&gt;" style="ellipse;whiteSpace=wrap;html=1;" vertex="1" parent="1">
          <mxGeometry x="-290" y="-60" width="70" height="50" as="geometry" />
        </mxCell>
        <mxCell id="Kqkyi_JC7MfUf7znlrTd-172" value="&lt;span style=&quot;font-size: 14px;&quot;&gt;描述&lt;/span&gt;" style="ellipse;whiteSpace=wrap;html=1;" vertex="1" parent="1">
          <mxGeometry x="-320" y="5" width="70" height="50" as="geometry" />
        </mxCell>
        <mxCell id="Kqkyi_JC7MfUf7znlrTd-173" value="&lt;span style=&quot;font-size: 14px;&quot;&gt;统计键名&lt;/span&gt;" style="ellipse;whiteSpace=wrap;html=1;" vertex="1" parent="1">
          <mxGeometry x="-310" y="135" width="70" height="50" as="geometry" />
        </mxCell>
        <mxCell id="Kqkyi_JC7MfUf7znlrTd-174" value="&lt;span style=&quot;font-size: 14px;&quot;&gt;统计值&lt;/span&gt;" style="ellipse;whiteSpace=wrap;html=1;" vertex="1" parent="1">
          <mxGeometry x="-320" y="70" width="70" height="50" as="geometry" />
        </mxCell>
        <mxCell id="Kqkyi_JC7MfUf7znlrTd-175" value="&lt;span style=&quot;font-size: 14px;&quot;&gt;更新时间&lt;/span&gt;" style="ellipse;whiteSpace=wrap;html=1;" vertex="1" parent="1">
          <mxGeometry x="-140" y="-90" width="70" height="50" as="geometry" />
        </mxCell>
      </root>
    </mxGraphModel>
  </diagram>
</mxfile>
